<svg xmlns="http://www.w3.org/2000/svg" viewBox="0 0 500 140" width="100%" height="100%">
  <!-- Orange Sun Rays Arc -->
  <g transform="translate(10, 5)">
    <path d="M 40,75 C 30,50 40,20 60,10 C 50,30 65,40 80,35 C 75,15 95,5 115,0 C 105,20 120,30 140,25 C 135,5 155,0 180,0 C 165,20 180,35 200,30 C 195,15 215,20 230,35 C 205,45 220,65 240,65 Z" fill="#F37021"/>
    <!-- Blue swoosh arch -->
    <path d="M 20,80 A 110,80 0 0,1 250,80 A 100,70 0 0,0 30,80 Z" fill="#2B439A"/>
  </g>
  <!-- Dr. Morepen Text -->
  <text x="110" y="112" font-family="'Trebuchet MS', 'Arial', sans-serif" font-weight="bold" font-size="58" fill="#2B439A">Dr. Morepen</text>
  <text x="475" y="70" font-family="sans-serif" font-weight="bold" font-size="16" fill="#2B439A">®</text>
</svg>
